# xmcd
#
# Track frame offsets:
#	150
#	20905
#	43057
#	64510
#	85575
#	106050
#	124690
#	145287
#	167832
#	189100
#	209917
#	230550
#	258642
#
# Disc length: 3771 seconds
#
# Revision: 1
# Processed by: cddbd v1.5.1PL0 Copyright (c) Steve Scherf et al.
# Submitted via: CDex 1.50Beta5
#
DISCID=b80eb90d
DTITLE=Various Artist - 想い出にかわるとき
DYEAR=1900
DGENRE=Pop
TTITLE0=EPO/私について
TTITLE1=稲垣潤一/JUST THE SAME
TTITLE2=小田和正/ためらわない,迷わない
TTITLE3=バービーボーイズ/チャンス到来
TTITLE4=安全地帯/悲しみにさよなら
TTITLE5=ブレッド&バター/FINE LINE
TTITLE6=麗美/すれちがい
TTITLE7=吉田栄作/プラトニック
TTITLE8=辛島美登里/あなたにかえれない
TTITLE9=鈴木雅之/別れの街
TTITLE10=田原音彦/逢いにいきたい
TTITLE11=SING LIKE TALKING/11月の記憶
TTITLE12=佐野元春/SOMEDAY
EXTD=
EXTT0=
EXTT1=
EXTT2=
EXTT3=
EXTT4=
EXTT5=
EXTT6=
EXTT7=
EXTT8=
EXTT9=
EXTT10=
EXTT11=
EXTT12=
PLAYORDER=
